<svg width="16" height="17" viewBox="0 0 16 17" fill="none" xmlns="http://www.w3.org/2000/svg">
<path d="M15.478 12.7495C15.478 13.0195 15.418 13.297 15.2905 13.567C15.163 13.837 14.998 14.092 14.7805 14.332C14.413 14.737 14.008 15.0295 13.5505 15.217C13.1005 15.4045 12.613 15.502 12.088 15.502C11.323 15.502 10.5055 15.322 9.64299 14.9545C8.78049 14.587 7.91799 14.092 7.06299 13.4695C6.20049 12.8395 5.38299 12.142 4.60299 11.3695C3.83049 10.5895 3.13299 9.77195 2.51049 8.91695C1.89549 8.06195 1.40049 7.20695 1.04049 6.35945C0.680488 5.50445 0.500488 4.68695 0.500488 3.90695C0.500488 3.39695 0.590488 2.90945 0.770488 2.45945C0.950488 2.00195 1.23549 1.58195 1.63299 1.20695C2.11299 0.734453 2.63799 0.501953 3.19299 0.501953C3.40299 0.501953 3.61299 0.546953 3.80049 0.636953C3.99549 0.726953 4.16799 0.861953 4.30299 1.05695L6.04299 3.50945C6.17799 3.69695 6.27549 3.86945 6.34299 4.03445C6.41049 4.19195 6.44799 4.34945 6.44799 4.49195C6.44799 4.67195 6.39549 4.85195 6.29049 5.02445C6.19299 5.19695 6.05049 5.37695 5.87049 5.55695L5.30049 6.14945C5.21799 6.23195 5.18049 6.32945 5.18049 6.44945C5.18049 6.50945 5.18799 6.56195 5.20299 6.62195C5.22549 6.68195 5.24799 6.72695 5.26299 6.77195C5.39799 7.01945 5.63049 7.34195 5.96049 7.73195C6.29799 8.12195 6.65799 8.51945 7.04799 8.91695C7.45299 9.31445 7.84299 9.68195 8.24049 10.0195C8.63049 10.3495 8.95299 10.5745 9.20799 10.7095C9.24549 10.7245 9.29049 10.747 9.34299 10.7695C9.40299 10.792 9.46299 10.7995 9.53049 10.7995C9.65799 10.7995 9.75549 10.7545 9.83799 10.672L10.408 10.1095C10.5955 9.92195 10.7755 9.77945 10.948 9.68945C11.1205 9.58445 11.293 9.53195 11.4805 9.53195C11.623 9.53195 11.773 9.56195 11.938 9.62945C12.103 9.69695 12.2755 9.79445 12.463 9.92195L14.9455 11.6845C15.1405 11.8195 15.2755 11.977 15.358 12.1645C15.433 12.352 15.478 12.5395 15.478 12.7495Z" stroke="#112355" stroke-miterlimit="10"/>
</svg>
