<svg width="17" height="17" viewBox="0 0 17 17" fill="none" xmlns="http://www.w3.org/2000/svg">
<path d="M4.88685 14.5891C5.94935 15.2266 7.22435 15.5807 8.49935 15.5807C12.3952 15.5807 15.5827 12.3932 15.5827 8.4974C15.5827 4.60156 12.3952 1.41406 8.49935 1.41406C4.60352 1.41406 1.41602 4.60156 1.41602 8.4974C1.41602 9.7724 1.77018 10.9766 2.33685 12.0391L1.85646 13.8867C1.66174 14.6357 2.35494 15.3125 3.099 15.0999L4.88685 14.5891Z" stroke="#112355" stroke-miterlimit="10" stroke-linecap="round" stroke-linejoin="round"/>
<path d="M11.6875 10.5177C11.6875 10.6324 11.662 10.7504 11.6077 10.8651C11.5534 10.9799 11.4832 11.0883 11.3906 11.1903C11.2342 11.3624 11.0618 11.4867 10.8671 11.5664C10.6755 11.6461 10.468 11.6875 10.2446 11.6875C9.91897 11.6875 9.57101 11.611 9.2039 11.4548C8.83679 11.2986 8.46967 11.0883 8.10575 10.8237C7.73864 10.5559 7.39068 10.2595 7.05868 9.93119C6.72988 9.59969 6.43299 9.25225 6.16803 8.88888C5.90627 8.5255 5.69557 8.16213 5.54234 7.80194C5.38911 7.43856 5.3125 7.09112 5.3125 6.75962C5.3125 6.54287 5.35081 6.33569 5.42742 6.14444C5.50404 5.95 5.62534 5.7715 5.79454 5.61213C5.99884 5.41131 6.2223 5.3125 6.45853 5.3125C6.54792 5.3125 6.6373 5.33163 6.71711 5.36988C6.80011 5.40813 6.87353 5.4655 6.93099 5.54837L7.6716 6.59069C7.72906 6.67038 7.77056 6.74369 7.79929 6.81381C7.82802 6.88075 7.84398 6.94769 7.84398 7.00825C7.84398 7.08475 7.82164 7.16125 7.77695 7.23456C7.73545 7.30787 7.67479 7.38437 7.59818 7.46087L7.35556 7.71269C7.32045 7.74775 7.30449 7.78919 7.30449 7.84019C7.30449 7.86569 7.30768 7.888 7.31407 7.9135C7.32364 7.939 7.33322 7.95812 7.3396 7.97725C7.39706 8.08244 7.49603 8.2195 7.63649 8.38525C7.78014 8.551 7.93337 8.71994 8.09937 8.88888C8.27175 9.05781 8.43775 9.214 8.60694 9.35744C8.77294 9.49769 8.91021 9.59331 9.01875 9.65069C9.03471 9.65706 9.05386 9.66662 9.07621 9.67619C9.10175 9.68575 9.12728 9.68894 9.15602 9.68894C9.21028 9.68894 9.25178 9.66981 9.2869 9.63475L9.52951 9.39569C9.60932 9.316 9.68594 9.25544 9.75936 9.21719C9.83278 9.17256 9.9062 9.15025 9.98601 9.15025C10.0467 9.15025 10.1105 9.163 10.1807 9.19169C10.251 9.22037 10.3244 9.26181 10.4042 9.316L11.4608 10.0651C11.5438 10.1224 11.6013 10.1894 11.6364 10.2691C11.6683 10.3487 11.6875 10.4284 11.6875 10.5177Z" stroke="#112355" stroke-miterlimit="10"/>
</svg>
